<mxfile host="app.diagrams.net" modified="2023-08-17T08:56:23.499Z" agent="Mozilla/5.0 (Windows NT 10.0; Win64; x64) AppleWebKit/537.36 (KHTML, like Gecko) Chrome/115.0.0.0 Safari/537.36" etag="dVHl6LvG5Il8aZxfd4Cu" version="21.6.8" type="github">
  <diagram name="第 1 页" id="VI6KnH4SvkmNfheSsTPn">
    <mxGraphModel dx="880" dy="438" grid="0" gridSize="10" guides="1" tooltips="1" connect="1" arrows="1" fold="1" page="1" pageScale="1" pageWidth="827" pageHeight="1169" math="0" shadow="0">
      <root>
        <mxCell id="0" />
        <mxCell id="1" parent="0" />
        <mxCell id="X6rlAztyOAfTGqyqPcdn-1" value="" style="rounded=0;whiteSpace=wrap;html=1;fillColor=#66FF66;strokeColor=#d79b00;movable=0;resizable=0;rotatable=0;deletable=0;editable=0;locked=1;connectable=0;" vertex="1" parent="1">
          <mxGeometry x="64" y="56.5" width="708" height="369" as="geometry" />
        </mxCell>
        <mxCell id="X6rlAztyOAfTGqyqPcdn-2" value="" style="rounded=0;whiteSpace=wrap;html=1;fillColor=#6666FF;" vertex="1" parent="1">
          <mxGeometry x="87" y="90" width="388" height="294" as="geometry" />
        </mxCell>
        <mxCell id="X6rlAztyOAfTGqyqPcdn-4" value="Text" style="text;html=1;strokeColor=none;fillColor=none;align=center;verticalAlign=middle;whiteSpace=wrap;rounded=0;" vertex="1" parent="1">
          <mxGeometry x="382" y="215" width="60" height="30" as="geometry" />
        </mxCell>
      </root>
    </mxGraphModel>
  </diagram>
</mxfile>
